HIERARCHY
ROOT ui
{
	 OFFSET 0 0 0
	 CHANNELS 3 XPosition YPosition Z Position
	 EndSite
	 {
	 OFFSET 0 -1 0
	 }
}
ROOT li
{
	 OFFSET 0 0 0
	 CHANNELS 3 XPosition YPosition Z Position
	 EndSite
	 {
	 OFFSET 0 -1 0
	 }
}
ROOT ul
{
	 OFFSET 0 0 0
	 CHANNELS 3 XPosition YPosition Z Position
	 EndSite
	 {
	 OFFSET 0 -1 0
	 }
}
ROOT ll
{
	 OFFSET 0 0 0
	 CHANNELS 3 XPosition YPosition Z Position
	 EndSite
	 {
	 OFFSET 0 -1 0
	 }
}
ROOT tt
{
	 OFFSET 0 0 0
	 CHANNELS 3 XPosition YPosition Z Position
	 EndSite
	 {
	 OFFSET 0 -1 0
	 }
}
ROOT tb
{
	 OFFSET 0 0 0
	 CHANNELS 3 XPosition YPosition Z Position
	 EndSite
	 {
	 OFFSET 0 -1 0
	 }
}
ROOT td
{
	 OFFSET 0 0 0
	 CHANNELS 3 XPosition YPosition Z Position
	 EndSite
	 {
	 OFFSET 0 -1 0
	 }
}
ROOT v
{
	 OFFSET 0 0 0
	 CHANNELS 3 XPosition YPosition Z Position
	 EndSite
	 {
	 OFFSET 0 -1 0
	 }
}
ROOT bn
{
	 OFFSET 0 0 0
	 CHANNELS 3 XPosition YPosition Z Position
	 EndSite
	 {
	 OFFSET 0 -1 0
	 }
}
MOTION
Frames: 19
Frame Time: 0.002
0.016527624130249025	-0.002188093900680542	0		0.462141845703125	-2.289577880859375	0		-1.037246826171875	-0.04240462875366211	0		-0.6275560302734375	-2.4502373046875	0		1.9804273681640625	-0.7145670776367188	0		3.1776357421875	0.23047915649414064	0		4.5756767578125	0.41022860717773435	0		5.969109375	0.5015149536132812	0		-0.31734051513671874	5.90888134765625	0		
0.011628949165344238	0.002686373949050903	0		0.48616851806640626	-2.29514599609375	0		-1.0083548583984374	-0.051109413146972656	0		-0.6013327026367188	-2.443880615234375	0		2.000298583984375	-0.7260123901367187	0		3.1825361328125	0.22331776428222655	0		4.57645947265625	0.3961854248046875	0		5.9569541015625	0.49510772705078127	0		-0.18322975158691407	5.92753173828125	0		
-0.012471631050109863	-0.005120835781097412	0		0.4562575378417969	-2.29683935546875	0		-1.053434814453125	-0.05762545013427734	0		-0.6191915893554687	-2.44280908203125	0		2.003192626953125	-0.736166259765625	0		3.209118896484375	0.19583380126953126	0		4.5772607421875	0.38316873168945315	0		5.95401513671875	0.4797443542480469	0		-0.3177642822265625	5.9084619140625	0		
0.011675925254821777	0.002326904058456421	0		0.4823439025878906	-2.299402099609375	0		-1.010492919921875	-0.06352060317993163	0		-0.5800374755859375	-2.44162353515625	0		1.9971219482421876	-0.74415673828125	0		3.197230712890625	0.2019875030517578	0		4.58602978515625	0.368051025390625	0		5.94968408203125	0.4696718444824219	0		-0.3179908447265625	5.90827734375	0		
-0.017345436096191408	-3.661729991436005E-4	0		0.43462930297851565	-2.28877685546875	0		-1.0324334716796875	-0.061368827819824216	0		-0.6318084716796875	-2.43498046875	0		1.97787939453125	-0.7629197387695312	0		3.218926513671875	0.1816300506591797	0		4.60092431640625	0.3608623046875	0		5.94829541015625	0.47337078857421877	0		-0.3182236633300781	5.9081123046875	0		
0.011717637062072754	0.002047879934310913	0		0.4886941833496094	-2.292735595703125	0		-0.9923690795898438	-0.059171764373779294	0		-0.62355859375	-2.427263671875	0		2.0210052490234376	-0.7586395263671875	0		3.223827392578125	0.17456306457519533	0		4.592724609375	0.3480604248046875	0		5.93981787109375	0.48430108642578124	0		-0.18513096618652344	5.92787548828125	0		
-0.014263699531555176	0.0023516809940338137	0		0.45193798828125	-2.284239990234375	0		-1.040501953125	-0.06856478118896485	0		-0.619361083984375	-2.4224580078125	0		2.0218336181640626	-0.7726712646484375	0		3.22872509765625	0.16751927185058593	0		4.61148779296875	0.33285675048828123	0		5.9332080078125	0.45367022705078125	0		-0.3196822509765625	5.9088671875	0		
0.011744212150573731	0.0018661930561065675	0		0.5019281921386719	-2.29208056640625	0		-0.9685123291015625	-0.07081206512451171	0		-0.6151875	-2.418625	0		2.018814697265625	-0.776618408203125	0		3.23541552734375	0.14746769714355468	0		4.61228173828125	0.3199554443359375	0		5.93668115234375	0.43825775146484375	0		-0.36816015625	5.8935283203125	0		
-0.01729233932495117	-7.314730286598206E-4	0		0.4589831237792969	-2.294440673828125	0		-1.03641650390625	-0.06484066009521484	0		-0.6021812133789063	-2.424902099609375	0		2.0275699462890624	-0.794728515625	0		3.245197021484375	0.1333891296386719	0		4.62024365234375	0.3179604797363281	0		5.93184912109375	0.46297885131835936	0		-0.31915597534179685	5.90769677734375	0		
0.007692031860351563	-0.0021436359882354736	0		0.46313134765625	-2.29050927734375	0		-0.9835421142578125	-0.073724853515625	0		-0.5939664916992188	-2.417072021484375	0		2.0424288330078126	-0.8059093627929688	0		3.264130615234375	0.129189453125	0		4.6399990234375	0.302796630859375	0		5.92819580078125	0.44961062622070314	0		-0.3183837585449219	5.90664697265625	0		
-0.007134893894195557	0.009094910621643066	0		0.4693164367675781	-2.2835810546875	0		-0.976431396484375	-0.06686071014404296	0		-0.5877771606445312	-2.41017919921875	0		2.0455179443359377	-0.80188134765625	0		3.255956787109375	0.11843106079101562	0		4.6458955078125	0.2968663024902344	0		5.921578125	0.41907220458984373	0		-0.20040919494628906	5.91680908203125	0		
0.03673465347290039	4.5005300641059873E-4	0		0.515193603515625	-2.296241943359375	0		-0.9804762573242187	-0.06979170989990234	0		-0.58770458984375	-2.410160888671875	0		2.0366044921875	-0.7976436157226563	0		3.25675048828125	0.10555272674560547	0		4.65257470703125	0.2769381713867187	0		5.91447900390625	0.42490548706054687	0		-0.36897317504882815	5.8934462890625	0		
-0.014246206283569336	0.002305912971496582	0		0.44460247802734376	-2.273066162109375	0		-0.980476806640625	-0.06975247955322265	0		-0.5516922607421875	-2.41366748046875	0		2.0553740234375	-0.813814453125	0		3.265713134765625	0.10356806945800781	0		4.6574560546875	0.2700539245605469	0		5.91081201171875	0.4098635559082031	0		-0.33504696655273436	5.8989755859375	0		
0.007682709217071533	-0.001939424991607666	0		0.47844500732421874	-2.28648486328125	0		-0.9804817504882812	-0.0696813735961914	0		-0.5746851196289062	-2.41623046875	0		2.0425118408203127	-0.8054713745117188	0		3.29146923828125	0.08834019470214843	0		4.66131884765625	0.2621981811523437	0		5.91496533203125	0.3910820922851562	0		-0.33420932006835935	5.89804638671875	0		
-0.014267460823059082	0.002521354913711548	0		0.4374668884277344	-2.286720703125	0		-1.0124293823242188	-0.06508661651611328	0		-0.5705888061523438	-2.412182861328125	0		2.064557373046875	-0.8026474609375	0		3.285438232421875	0.08762220001220702	0		4.6841572265625	0.2530618438720703	0		5.91079736328125	0.41069110107421875	0		-0.2010369110107422	5.91710693359375	0		
0.011703484535217286	0.002267949104309082	0		0.4576326599121094	-2.276875	0		-1.0065473022460938	-0.07104853057861328	0		-0.5644653930664062	-2.405138671875	0		2.06660693359375	-0.7984951782226563	0		3.306284912109375	0.07950443267822266	0		4.68694140625	0.2412463836669922	0		5.907837890625	0.39739346313476565	0		-0.2011661834716797	5.9172509765625	0		
-0.014333640098571777	0.0028400599956512453	0		0.4446874084472656	-2.272497314453125	0		-0.9765130615234375	-0.06635346984863282	0		-0.530552978515625	-2.410497802734375	0		2.085560302734375	-0.7995870971679687	0		3.335101806640625	0.07027681732177735	0		4.6917744140625	0.233407470703125	0		5.91195654296875	0.37691598510742186	0		-0.34876434326171873	5.88768701171875	0		
0.011606345176696778	0.0026332581043243407	0		0.4446522216796875	-2.272299560546875	0		-1.0225331420898438	-0.06346179962158204	0		-0.5685823974609375	-2.409724609375	0		2.088572265625	-0.79542041015625	0		3.321845703125	0.05770364379882813	0		4.70249853515625	0.2194780731201172	0		5.89769677734375	0.3847999572753906	0		-0.3347098388671875	5.89866015625	0		
-0.017512123107910157	2.9203200340271E-4	0		0.47055203247070315	-2.274485107421875	0		-0.9447101440429687	-0.07045296478271484	0		-0.5326985473632813	-2.413068359375	0		2.09360693359375	-0.7882772827148438	0		3.315739501953125	0.056022178649902346	0		4.70629833984375	0.21164920043945312	0		5.901263671875	0.39372528076171875	0		-0.33384088134765627	5.89685595703125	0		
